<svg xmlns="http://www.w3.org/2000/svg" width="420" height="280" viewBox="0 0 420 280">
  <defs>
    <pattern id="dots" width="28" height="28" patternUnits="userSpaceOnUse">
      <circle cx="2" cy="2" r="1.2" fill="#ff6a00" fill-opacity="0.2"/>
      <path d="M28 0H0v28" fill="none" stroke="#8ecae6" stroke-opacity="0.08" stroke-width="1"/>
    </pattern>
    <g id="i9">
      <circle cx="48" cy="42" r="26" fill="none" stroke="#8ecae6" stroke-opacity="0.2" stroke-width="12"/>
      <circle cx="16" cy="60" r="6" fill="#ff6a00" fill-opacity="0.45"/>
      <path d="M18 82h32l22 38H43z" fill="#8ecae6" fill-opacity="0.12"/>
      <path d="M98 36h72m-42 0v72m42 0h64m-134 0h-54" fill="none" stroke="#8ecae6" stroke-opacity="0.1" stroke-width="2"/>
      <circle cx="172" cy="36" r="3" fill="#ff6a00" fill-opacity="0.35"/>
      <circle cx="236" cy="108" r="3" fill="#ff6a00" fill-opacity="0.35"/>
    </g>
  </defs>
  <rect width="420" height="280" fill="transparent"/>
  <rect width="420" height="280" fill="url(#dots)"/>
  <use href="#i9" x="16" y="14"/>
  <use href="#i9" x="214" y="132" transform="rotate(-10 274 192)"/>
  <path d="M-20 248c98-46 165-30 242-84 69-48 102-102 218-94" fill="none" stroke="#ff6a00" stroke-opacity="0.08" stroke-width="18"/>
  <path d="M-18 228c100-46 170-34 245-88 70-50 105-105 216-92" fill="none" stroke="#8ecae6" stroke-opacity="0.1" stroke-width="2"/>
</svg>
