<svg width="640" height="360" viewBox="0 0 640 360" fill="none" xmlns="http://www.w3.org/2000/svg">
  <rect width="640" height="360" fill="#0A2540"/>
  <rect x="28" y="28" width="584" height="304" rx="18" fill="#123B56" stroke="#255E7A"/>
  <circle cx="244" cy="150" r="48" fill="white" fill-opacity="0.95"/>
  <path d="M172 224L124 150H88L150 252H224L172 224Z" fill="#E8F3F8"/>
  <path d="M244 76C203.13 76 170 109.13 170 150C170 190.87 203.13 224 244 224H294L326 150C326 109.13 292.87 76 252 76H244ZM244 112H252C272.99 112 290 129.01 290 150C290 170.99 272.99 188 252 188H244C223.01 188 206 170.99 206 150C206 129.01 223.01 112 244 112Z" fill="#E8F3F8"/>
  <circle cx="96" cy="150" r="22" fill="#ff6a00"/>
  <text x="360" y="150" fill="#ffffff" font-family="Arial, sans-serif" font-size="42" font-weight="700">i9TMG</text>
  <text x="360" y="190" fill="#AFC1CC" font-family="Arial, sans-serif" font-size="18" letter-spacing="5">CALCULOS INDUSTRIAIS</text>
  <text x="360" y="226" fill="#ff6a00" font-family="Arial, sans-serif" font-size="16" font-weight="700">Imagem tecnica indisponivel</text>
</svg>
